<?xml version="1.0" encoding="utf-8"?>
<!-- Generator: Adobe Illustrator 15.0.2, SVG Export Plug-In . SVG Version: 6.00 Build 0)  -->
<!DOCTYPE svg PUBLIC "-//W3C//DTD SVG 1.1//EN" "http://www.w3.org/Graphics/SVG/1.1/DTD/svg11.dtd">
<svg version="1.1" id="Layer_1" xmlns="http://www.w3.org/2000/svg" xmlns:xlink="http://www.w3.org/1999/xlink" x="0px" y="0px"
	 viewBox="20 20 212 86" enable-background="new 20 20 212 86" xml:space="preserve">
<g>
	<line fill="none" stroke="#BB8D0B" stroke-width="1.8087" x1="27.384" y1="77.37" x2="225.176" y2="77.37"/>
	<g>
		<path fill="#BB8D0B" d="M27.175,91.305l2.006-0.428c0.24,1.135,1.162,1.703,2.769,1.703c0.732,0,1.296-0.146,1.689-0.438
			c0.396-0.289,0.593-0.65,0.593-1.082c0-0.313-0.09-0.602-0.27-0.867s-0.562-0.475-1.149-0.626l-2.188-0.569
			c-0.751-0.196-1.305-0.42-1.662-0.668c-0.357-0.249-0.645-0.6-0.86-1.053c-0.215-0.453-0.323-0.937-0.323-1.451
			c0-1.023,0.381-1.846,1.142-2.463s1.734-0.928,2.919-0.928c0.985,0,1.864,0.216,2.639,0.646c0.775,0.432,1.269,1.04,1.481,1.829
			l-1.964,0.487c-0.301-0.867-1.007-1.301-2.113-1.301c-0.643,0-1.134,0.134-1.473,0.402s-0.508,0.609-0.508,1.023
			c0,0.654,0.531,1.113,1.595,1.376l1.946,0.487c1.18,0.297,1.973,0.733,2.375,1.313c0.402,0.578,0.604,1.219,0.604,1.917
			c0,1.124-0.425,2.011-1.272,2.655c-0.848,0.646-1.945,0.969-3.293,0.969c-1.136,0-2.13-0.236-2.982-0.713
			C28.021,93.053,27.455,92.311,27.175,91.305z"/>
		<path fill="#BB8D0B" d="M67.013,90.088l1.913,0.209c-0.124,1.147-0.567,2.092-1.33,2.832c-0.765,0.742-1.767,1.111-3.008,1.111
			c-1.047,0-1.896-0.262-2.547-0.788c-0.651-0.525-1.154-1.239-1.506-2.14c-0.353-0.9-0.529-1.893-0.529-2.979
			c0-1.744,0.415-3.164,1.242-4.258s1.966-1.641,3.415-1.641c1.135,0,2.08,0.35,2.835,1.049c0.756,0.699,1.231,1.701,1.428,3.004
			l-1.913,0.201c-0.354-1.729-1.131-2.592-2.334-2.592c-0.771,0-1.371,0.359-1.799,1.078c-0.429,0.719-0.642,1.76-0.642,3.125
			c0,1.387,0.229,2.435,0.688,3.143c0.459,0.707,1.065,1.061,1.82,1.061c0.604,0,1.119-0.237,1.543-0.713
			C66.716,91.316,66.956,90.748,67.013,90.088z"/>
		<path fill="#BB8D0B" d="M95.101,94.064h-2.064V82.612h2.064V94.064z"/>
		<path fill="#BB8D0B" d="M127.406,94.064h-7.443V82.612h7.367v1.703h-5.303v3.104h4.263v1.661h-4.263v3.205h5.379V94.064z"/>
		<path fill="#BB8D0B" d="M160.244,94.064h-2.004l-4.346-7.316c-0.068-0.111-0.178-0.293-0.328-0.545
			c-0.066-0.111-0.172-0.288-0.311-0.528v8.39h-1.662V82.612h2.283l4.01,6.745c0.033,0.057,0.277,0.467,0.73,1.234v-7.979h1.627
			V94.064z"/>
		<path fill="#BB8D0B" d="M191.564,90.088l1.912,0.209c-0.123,1.147-0.566,2.092-1.33,2.832c-0.764,0.742-1.766,1.111-3.008,1.111
			c-1.045,0-1.895-0.262-2.545-0.788c-0.652-0.525-1.154-1.239-1.506-2.14c-0.355-0.9-0.529-1.893-0.529-2.979
			c0-1.744,0.414-3.164,1.242-4.258c0.826-1.094,1.965-1.641,3.414-1.641c1.135,0,2.08,0.35,2.836,1.049s1.23,1.701,1.426,3.004
			l-1.912,0.201c-0.354-1.729-1.131-2.592-2.334-2.592c-0.771,0-1.371,0.359-1.799,1.078s-0.643,1.76-0.643,3.125
			c0,1.387,0.23,2.435,0.689,3.143c0.457,0.707,1.064,1.061,1.82,1.061c0.604,0,1.119-0.237,1.543-0.713
			C191.268,91.316,191.508,90.748,191.564,90.088z"/>
		<path fill="#BB8D0B" d="M225.039,94.064h-7.441V82.612h7.367v1.703h-5.303v3.104h4.262v1.661h-4.262v3.205h5.377V94.064z"/>
	</g>
	<g>
		<path stroke="#141006" stroke-wdith="1" vector-effect="non-scaling-stroke" fill="#FFFFFF" d="M39.932,36.337h3.97c5.722,0,8.713,2.6,8.713,7.413c0,5.334-2.858,7.869-8.78,7.869h-3.902V36.337z
			 M27.384,32.563v2.867h1.104c3.318,0,4.229,1.362,4.229,4.938v24.261c0,3.573-0.91,4.938-4.229,4.938h-1.104v2.863
			c2.988-0.132,5.917-0.132,8.908-0.132s5.981,0,8.974,0.132v-2.863h-1.038c-3.384,0-4.296-1.3-4.296-4.938v-9.496h5.334
			c9.688,0,14.373-3.382,14.373-11.25c0-7.807-5.071-11.319-15.544-11.319H27.384z"/>
		<path stroke="#141006" stroke-wdith="1" vector-effect="non-scaling-stroke" fill="#FFFFFF" d="M68.923,40.641c2.29,0,4.524-0.052,6.765-0.105v2.292h-0.885c-2.862,0-3.38,0.989-3.38,3.954V60.88
			c0,5.933,1.818,8.638,7.385,8.638c5.461,0,7.335-2.705,7.335-8.536V46.938c0-3.07-0.572-4.11-3.586-4.11h-0.835v-2.292
			c2.236,0.053,4.372,0.105,6.503,0.105c2.08,0,4.16-0.052,6.191-0.105v2.292h-0.938c-2.234,0-2.862,1.195-2.862,3.954v13.89
			c0,8.638-3.535,12.485-12.33,12.485c-8.271,0-12.589-4.002-12.589-11.755v-14.62c0-2.705-0.572-3.954-2.859-3.954h-0.832v-2.292
			C64.345,40.589,66.633,40.641,68.923,40.641z"/>
		<path stroke="#141006" stroke-wdith="1" vector-effect="non-scaling-stroke" fill="#FFFFFF" d="M107.371,43.608h3.328c4.893,0,7.077,1.77,7.077,5.981c0,4.059-2.55,5.619-7.804,5.619h-2.602V43.608z
			 M97.33,40.536v2.292h0.834c2.652,0,3.432,1.092,3.432,3.954v19.406c0,2.912-0.728,3.955-3.432,3.955H97.33v2.288
			c2.393-0.104,4.735-0.104,7.127-0.104c2.395,0,4.786,0,7.181,0.104v-2.288h-0.884c-2.655,0-3.383-1.043-3.383-3.955v-8.221h2.913
			c4.317,0,5.308,1.249,6.506,4.681c0.569,1.718,0.883,5.207,2.598,9.784h8.585v-2.288c-0.154,0-0.365,0-0.521,0
			c-2.654,0-3.539-1.563-4.42-5.15c-1.248-4.997-1.562-7.86-5.565-8.534c3.741-0.988,5.821-3.748,5.821-7.44
			c0-6.035-4.055-8.482-12.588-8.482H97.33z"/>
		<path stroke="#141006" stroke-wdith="1" vector-effect="non-scaling-stroke" fill="#FFFFFF" d="M139.832,43.556h3.643c8.797,0,12.955,3.851,12.955,12.485c0,9.107-4.059,13.321-12.689,13.321h-3.908
			V43.556z M129.791,40.536v2.292h0.838c2.648,0,3.43,1.092,3.43,3.954v19.406c0,2.859-0.781,3.955-3.43,3.955h-0.838v2.288h15.244
			c11.809,0,17.586-5.308,17.586-16.337c0-10.563-6.033-15.557-18.416-15.557H129.791z"/>
		<path stroke="#141006" stroke-wdith="1" vector-effect="non-scaling-stroke" fill="#FFFFFF" d="M170.803,40.641c2.287,0,4.529-0.052,6.762-0.105v2.292h-0.885c-2.859,0-3.379,0.989-3.379,3.954V60.88
			c0,5.933,1.822,8.638,7.387,8.638c5.463,0,7.334-2.705,7.334-8.536V46.938c0-3.07-0.57-4.11-3.586-4.11h-0.838v-2.292
			c2.24,0.053,4.373,0.105,6.508,0.105c2.082,0,4.162-0.052,6.188-0.105v2.292h-0.932c-2.238,0-2.865,1.195-2.865,3.954v13.89
			c0,8.638-3.535,12.485-12.33,12.485c-8.27,0-12.592-4.002-12.592-11.755v-14.62c0-2.705-0.57-3.954-2.857-3.954h-0.838v-2.292
			C166.221,40.589,168.512,40.641,170.803,40.641z"/>
		<path stroke="#141006" stroke-wdith="1" vector-effect="non-scaling-stroke" fill="#FFFFFF" d="M224.697,40.694v8.325h-2.648c0-0.312,0-0.573,0-0.833c0-4.061-1.146-4.37-5.309-4.37h-7.543v10.768h2.447
			c3.955,0,4.834-0.261,4.834-4.265h2.395v11.339h-2.342c-0.053-3.901-0.986-4.264-4.783-4.264h-2.551v11.86h7.334
			c4.891,0,5.725-0.623,5.775-6.344h2.602v9.519h-25.959v-2.288h1.09c2.758,0,3.381-1.096,3.381-3.955V46.781
			c0-2.862-0.672-3.954-3.381-3.954h-0.885v-2.134H224.697z"/>
	</g>
</g>
</svg>
